# xmcd
#
# Track frame offsets:
#	150
#	9377
#	26499
#	39183
#	51709
#	71141
#	84314
#	107241
#	118148
#	132382
#	146304
#	162880
#	184730
#	199623
#	210384
#	222541
#	242067
#	258826
#	271737
#	286257
#	302782
#
# Disc length: 4277 seconds
# Revision: 0
# Processed by: cddbd v1.5.2PL0 Copyright (c) Steve Scherf et al.
# Submitted via: dBpowerAMP V12.0
#
DISCID=3010b315
DTITLE=Clarence "Big" Miller - Did You Ever Hear The Blues? and Revelations And The Blues
DYEAR=2011
DGENRE=Blues
TTITLE0=Five O'Clock Blues
TTITLE1=Lament
TTITLE2=Did You Ever Hear THe Blues?
TTITLE3=Tired As I Can Be
TTITLE4=Good Old Guy
TTITLE5=Mr. Blues Child
TTITLE6=Red Sun Blues
TTITLE7=Mojo Blues
TTITLE8=Cool Saturday Night
TTITLE9=Got To Live
TTITLE10=Wee Small Hours
TTITLE11=About My Baby
TTITLE12=I Know
TTITLE13=Lament To Love
TTITLE14=The Monterey Story
TTITLE15=I Never Had A Woman
TTITLE16=Wanna See My Baby
TTITLE17=When You're Not Around
TTITLE18=It's A Hard Life
TTITLE19=Sweet Slumber
TTITLE20=If You Don't Love Me
EXTD=
EXTT0=
EXTT1=
EXTT2=
EXTT3=
EXTT4=
EXTT5=
EXTT6=
EXTT7=
EXTT8=
EXTT9=
EXTT10=
EXTT11=
EXTT12=
EXTT13=
EXTT14=
EXTT15=
EXTT16=
EXTT17=
EXTT18=
EXTT19=
EXTT20=
PLAYORDER=
